<svg xmlns="http://www.w3.org/2000/svg" xmlns:xlink="http://www.w3.org/1999/xlink" version="1.1" width="96" height="96"
  viewBox="3.08 4.62 96 96" xml:space="preserve">
  <g transform="matrix(0 0 0 0 0 0)" id="0c9d3489-19aa-4ad9-a682-b6c1dd55f448">
  </g>
  <g transform="matrix(1 0 0 1 48 48)" id="24014835-64f0-449c-b91f-3f0e672e6780">
    <rect
      style="stroke: none; stroke-width: 1; stroke-dasharray: none; stroke-linecap: butt; stroke-dashoffset: 0; stroke-linejoin: miter; stroke-miterlimit: 4; fill: rgb(255,255,255); fill-rule: nonzero; opacity: 1; visibility: hidden;"
      vector-effect="non-scaling-stroke" x="-48" y="-48" rx="0" ry="0" width="96" height="96" />
  </g>
  <g transform="matrix(1.05 0 0 1.05 50.77 52.77)">
    <g style="" vector-effect="non-scaling-stroke">
      <g transform="matrix(3.65 0 0 3.65 -11.93 12.2)">
        <path
          style="stroke: none; stroke-width: 1; stroke-dasharray: none; stroke-linecap: round; stroke-dashoffset: 0; stroke-linejoin: round; stroke-miterlimit: 4; fill: rgb(255,255,255); fill-rule: nonzero; opacity: 1;"
          vector-effect="non-scaling-stroke" transform=" translate(-13.23, -1039.2)"
          d="M 13.630859 1037.0293 C 13.535079 1037.0293 13.440164999999999 1037.0493 13.357422 1037.0973 L 12.623047 1037.5113 L 13.037109 1037.4762999999998 C 12.487146999999998 1037.2794999999999 11.870543 1037.4112999999998 11.453125 1037.8199999999997 L 11.451125 1037.8199999999997 C 10.861820999999999 1038.3980999999997 10.861820999999999 1039.3649999999998 11.451125 1039.9430999999997 L 11.453125 1039.9430999999997 C 11.634919 1040.1206999999997 11.798857 1040.2472999999998 12.039062 1040.3160999999998 C 12.108442 1040.5663999999997 12.234964 1040.7519999999997 12.423828 1040.9371999999998 C 13.013583 1041.5156 13.9388 1041.5413999999998 14.560547 1040.9371999999998 C 14.957215 1040.5516999999998 15.048096 1040.0157 14.998051 1039.7163999999998 L 15.369145 1039.0875999999998 C 15.710277999999999 1038.5147 14.850902999999999 1038.003 14.50977 1038.5758999999998 L 14.04102 1039.3609999999999 C 13.9719 1039.4782999999998 13.95356 1039.6185999999998 13.99024 1039.7496999999998 C 14.03733 1039.9198999999999 13.98924 1040.0968999999998 13.859381 1040.2242999999999 C 13.65549 1040.4243 13.326944000000001 1040.4243 13.123053 1040.2242999999999 C 13.027343 1040.1302999999998 12.976198 1040.0061999999998 12.976568 1039.8766999999998 C 12.977868 1039.6079999999997 12.766535000000001 1039.3863 12.498053 1039.3746999999998 C 12.364848 1039.3646999999999 12.242683000000001 1039.3166999999999 12.15235 1039.2281999999998 C 11.948709000000001 1039.0285 11.948709000000001 1038.7345999999998 12.15235 1038.5348999999999 C 12.293546000000001 1038.3964999999998 12.507341 1038.349 12.699225 1038.4177 C 12.835788 1038.4667 12.986878 1038.4537 13.113287 1038.3826999999999 L 13.849615 1037.9687 C 14.297118 1037.7266 14.139279 1037.0486999999998 13.630865 1037.0292 z"
          stroke-linecap="round" />
      </g>
      <g transform="matrix(3.65 0 0 3.65 4.39 -3.23)">
        <path
          style="stroke: none; stroke-width: 1; stroke-dasharray: none; stroke-linecap: round; stroke-dashoffset: 0; stroke-linejoin: round; stroke-miterlimit: 4; fill: rgb(60,21,24); fill-rule: nonzero; opacity: 1;"
          vector-effect="non-scaling-stroke" transform=" translate(-17.7, -1034.98)"
          d="M 19.392578 1030.4355 C 19.187891 1030.4355 19.002183 1030.555 18.923828 1030.7441000000001 C 18.769152000000002 1031.1193 18.407578 1031.3608000000002 18.001953 1031.3613 C 17.830354 1031.3607 17.660964 1031.3173 17.511719 1031.2324 C 17.280344 1031.1013 16.986846 1031.1744 16.84375 1031.3984 C 16.66004 1031.6876 16.342599 1031.8614 16 1031.8613 L 15.9922 1031.8613 C 15.818520000000001 1031.8614 15.657331000000001 1031.9513 15.566418 1032.0996 C 15.499098 1032.2083 15.402537 1032.3456 15.322278 1032.5352 C 14.806032 1033.7548 14.575545 1035.0224 13.976574000000001 1035.9883 C 13.894854 1036.12 13.656663000000002 1036.3956 13.451184000000001 1036.6073999999999 C 13.245704000000002 1036.8192 13.072278 1036.9805 13.072278 1036.9805 C 12.855974000000002 1037.1812 12.859593 1037.5246 13.080078 1037.7206999999999 C 13.080078 1037.7206999999999 14.326678000000001 1038.8437 14.748047 1039.3397999999997 C 14.918591 1039.5409999999997 15.216052 1039.5750999999998 15.427734 1039.4177999999997 C 15.427734 1039.4177999999997 16.348029999999998 1038.7531999999997 16.730469 1038.5700999999997 C 17.725239 1038.0938999999996 19.024915 1038.0059999999996 20.251953 1037.4079999999997 C 20.675857 1037.2014999999997 21.051603 1036.9352999999996 21.398438 1036.6423999999997 C 21.407837999999998 1036.6323999999997 21.416957999999997 1036.6263999999996 21.425777999999998 1036.6183999999998 C 22.870410999999997 1035.2089999999998 22.839754 1032.8754999999999 21.374997999999998 1031.4465999999998 C 20.851121999999997 1030.9352999999999 20.193741999999997 1030.5945999999997 19.492185999999997 1030.4445999999998 C 19.459395999999998 1030.4345999999998 19.426025999999997 1030.4345999999998 19.392576 1030.4345999999998 z M 19.634765 1031.5235 C 20.078769 1031.7021 20.354088 1031.8501 20.675781 1032.1641 C 21.760227 1033.222 21.773159 1034.87 20.730471 1035.8944999999999 C 20.435637 1036.1412999999998 20.136014000000003 1036.3510999999999 19.814455000000002 1036.5077999999999 C 18.824911000000004 1036.9899999999998 17.525867 1037.0815999999998 16.296877000000002 1037.6698999999999 C 15.835071000000003 1037.8910999999998 15.469843000000003 1038.1439999999998 15.203127000000002 1038.3398 C 14.763370000000002 1037.886 14.402663000000002 1037.5636 14.138674000000002 1037.3262 C 14.161144000000002 1037.3032 14.146574000000001 1037.3267 14.169924000000002 1037.3022 C 14.395025000000002 1037.0702 14.651705000000002 1036.7976 14.828127000000002 1036.5132 C 15.563238000000002 1035.3277 15.828729000000003 1033.9151000000002 16.283206000000003 1032.8413 C 16.904134000000003 1032.8013 17.350360000000002 1032.3371 17.414064000000003 1032.2671 C 18.306289000000003 1032.5312000000001 19.120540000000002 1032.2061 19.634764000000004 1031.5230000000001 z"
          stroke-linecap="round" />
      </g>
      <g transform="matrix(3.65 0 0 3.65 0.02 0.02)">
        <path
          style="stroke: none; stroke-width: 1; stroke-dasharray: none; stroke-linecap: round; stroke-dashoffset: 0; stroke-linejoin: round; stroke-miterlimit: 4; fill: rgb(152,174,46); fill-rule: nonzero; opacity: 1;"
          vector-effect="non-scaling-stroke" transform=" translate(-16.5, -1035.86)"
          d="M 16.275391 1026.3652 C 14.011768 1026.4192 11.768255 1027.2764 10.005859 1028.9277 C 9.804169721378813 1029.11647600851 9.793685977822731 1029.4330053281292 9.98244206790613 1029.6347132480435 C 10.171198157989528 1029.8364211679577 10.487726440759673 1029.8469361698158 10.689452999999999 1029.6581999999999 C 13.848931999999998 1026.6978 18.715545 1026.5812999999998 22.011719 1029.3886999999997 C 25.307833 1032.1960999999997 25.970102 1037.0204999999999 23.550781 1040.6112999999998 C 21.131457 1044.2020999999997 16.411693 1045.4013999999997 12.572266 1043.4003999999998 C 8.7328267 1041.3992999999998 7.013115900000001 1036.8448999999998 8.5703125 1032.8046999999997 C 8.63487505632691 1032.637924540626 8.605552675986804 1032.4493734154373 8.493392198632108 1032.3100809000307 C 8.381231721277414 1032.170788384624 8.20327553662725 1032.1019194863932 8.026566409088405 1032.1294197004509 C 7.849857281549558 1032.1569199145083 7.701245541019602 1032.2766106801314 7.6367188 1032.4433999999997 C 5.899491299999999 1036.9505999999997 7.8279269 1042.0546999999997 12.111328 1044.2870999999996 C 16.394716000000003 1046.5194999999997 21.681819 1045.1758999999995 24.380859 1041.1698999999996 C 27.079897000000003 1037.1639999999995 26.337387 1031.7589999999996 22.660156 1028.6269999999997 C 20.821508 1027.0609999999997 18.539013 1026.3115999999998 16.275391 1026.3651999999997 z"
          stroke-linecap="round" />
      </g>
      <g transform="matrix(3.65 0 0 3.65 -27.35 -18.23)">
        <path
          style="stroke: none; stroke-width: 0.27; stroke-dasharray: none; stroke-linecap: butt; stroke-dashoffset: 0; stroke-linejoin: miter; stroke-miterlimit: 4; fill: rgb(39,64,41); fill-rule: nonzero; opacity: 1;"
          vector-effect="non-scaling-stroke" transform=" translate(-9, -1030.86)"
          d="M 9.5001226 1030.8622 C 9.500122594695672 1030.9948082606197 9.447444159082478 1031.121985229142 9.35367594938007 1031.2157534200908 C 9.259907739677663 1031.3095216110396 9.132730760619761 1031.3622000212174 9.0001225 1031.3622 C 8.867514239380238 1031.3622000212174 8.740337260322336 1031.3095216110396 8.646569050619929 1031.2157534200908 C 8.552800840917522 1031.121985229142 8.50012240530433 1030.9948082606197 8.5001224 1030.8622 C 8.500122405304328 1030.7295917393803 8.552800840917522 1030.602414770858 8.646569050619929 1030.5086465799093 C 8.740337260322336 1030.4148783889605 8.867514239380236 1030.3621999787827 9.0001225 1030.3622 C 9.132730760619761 1030.3621999787827 9.259907739677663 1030.4148783889605 9.35367594938007 1030.5086465799093 C 9.447444159082478 1030.602414770858 9.50012259469567 1030.7295917393803 9.5001226 1030.8622 z"
          stroke-linecap="round" />
      </g>
    </g>
  </g>
</svg>