<svg width="180.80000610351559" height="116.5162560384498" viewBox="0 0 350 225.55690396442117" class="looka-1j8o68f">
  <defs id="SvgjsDefs1695"></defs>
  <g id="SvgjsG1696" featurekey="MI9fam-0"
    transform="matrix(5.131934812708661,0,0,5.131934812708661,93.43433603369998,-30.793488246910915)" fill="#111111">
    <g xmlns="http://www.w3.org/2000/svg" transform="translate(0,-1020.3622)">
      <path
        style="color:;font-style:normal;font-variant:normal;font-weight:normal;font-stretch:normal;font-size:medium;line-height:normal;font-family:sans-serif;text-indent:0;text-align:start;text-decoration:none;text-decoration-line:none;text-decoration-style:solid;text-decoration-color:;letter-spacing:normal;word-spacing:normal;text-transform:none;direction:ltr;block-progression:tb;writing-mode:lr-tb;baseline-shift:baseline;text-anchor:start;white-space:normal;clip-rule:nonzero;display:inline;overflow:visible;visibility:visible;opacity:1;isolation:auto;mix-blend-mode:normal;color-interpolation:sRGB;color-interpolation-filters:linearRGB;solid-color:;solid-opacity:1;fill:#111111;fill-opacity:1;fill-rule:nonzero;stroke:none;stroke-width:0.99999994;stroke-linecap:round;stroke-linejoin:round;stroke-miterlimit:4;stroke-dasharray:none;stroke-dashoffset:0;stroke-opacity:1;color-rendering:auto;image-rendering:auto;shape-rendering:auto;text-rendering:auto;enable-background:accumulate"
        d="m 13.630859,1037.0293 c -0.09578,0 -0.190694,0.02 -0.273437,0.068 l -0.734375,0.414 0.414062,-0.035 c -0.549962,-0.1968 -1.166566,-0.065 -1.583984,0.3437 l -0.002,0 c -0.589304,0.5781 -0.589304,1.545 0,2.1231 l 0.002,0 c 0.181794,0.1776 0.345732,0.3042 0.585937,0.373 0.06938,0.2503 0.195902,0.4359 0.384766,0.6211 0.589755,0.5784 1.514972,0.6042 2.136719,0 0.396668,-0.3855 0.487549,-0.9215 0.437504,-1.2208 l 0.371094,-0.6288 c 0.341133,-0.5729 -0.518242,-1.0846 -0.859375,-0.5117 l -0.46875,0.7851 c -0.06912,0.1173 -0.08746,0.2576 -0.05078,0.3887 0.04709,0.1702 -10e-4,0.3472 -0.130859,0.4746 -0.203891,0.2 -0.532437,0.2 -0.736328,0 -0.09571,-0.094 -0.146855,-0.2181 -0.146485,-0.3476 0.0013,-0.2687 -0.210033,-0.4904 -0.478515,-0.502 -0.133205,-0.01 -0.25537,-0.058 -0.345703,-0.1465 -0.203641,-0.1997 -0.203641,-0.4936 0,-0.6933 0.141196,-0.1384 0.354991,-0.1859 0.546875,-0.1172 0.136563,0.049 0.287653,0.036 0.414062,-0.035 l 0.736328,-0.414 c 0.447503,-0.2421 0.289664,-0.92 -0.21875,-0.9395 z">
      </path>
      <path
        style="color:;font-style:normal;font-variant:normal;font-weight:normal;font-stretch:normal;font-size:medium;line-height:normal;font-family:sans-serif;text-indent:0;text-align:start;text-decoration:none;text-decoration-line:none;text-decoration-style:solid;text-decoration-color:;letter-spacing:normal;word-spacing:normal;text-transform:none;direction:ltr;block-progression:tb;writing-mode:lr-tb;baseline-shift:baseline;text-anchor:start;white-space:normal;clip-rule:nonzero;display:inline;overflow:visible;visibility:visible;opacity:1;isolation:auto;mix-blend-mode:normal;color-interpolation:sRGB;color-interpolation-filters:linearRGB;solid-color:;solid-opacity:1;fill:#111111;fill-opacity:1;fill-rule:nonzero;stroke:none;stroke-width:0.99999982;stroke-linecap:round;stroke-linejoin:round;stroke-miterlimit:4;stroke-dasharray:none;stroke-dashoffset:0;stroke-opacity:1;color-rendering:auto;image-rendering:auto;shape-rendering:auto;text-rendering:auto;enable-background:accumulate"
        d="m 19.392578,1030.4355 c -0.204687,0 -0.390395,0.1195 -0.46875,0.3086 -0.154676,0.3752 -0.51625,0.6167 -0.921875,0.6172 -0.171599,-6e-4 -0.340989,-0.044 -0.490234,-0.1289 -0.231375,-0.1311 -0.524873,-0.058 -0.667969,0.166 -0.18371,0.2892 -0.501151,0.463 -0.84375,0.4629 l -0.0078,0 c -0.17368,10e-5 -0.334869,0.09 -0.425782,0.2383 -0.06732,0.1087 -0.163881,0.246 -0.24414,0.4356 -0.516246,1.2196 -0.746733,2.4872 -1.345704,3.4531 -0.08172,0.1317 -0.319911,0.4073 -0.52539,0.6191 -0.20548,0.2118 -0.378906,0.3731 -0.378906,0.3731 -0.216304,0.2007 -0.212685,0.5441 0.0078,0.7402 0,0 1.2466,1.123 1.667969,1.6191 0.170544,0.2012 0.468005,0.2353 0.679687,0.078 0,0 0.920296,-0.6646 1.302735,-0.8477 0.99477,-0.4762 2.294446,-0.5641 3.521484,-1.1621 0.423904,-0.2065 0.79965,-0.4727 1.146485,-0.7656 0.0094,-0.01 0.01852,-0.016 0.02734,-0.024 1.444633,-1.4094 1.413976,-3.7429 -0.05078,-5.1718 -0.523876,-0.5113 -1.181256,-0.852 -1.882812,-1.002 -0.03279,-0.01 -0.06616,-0.01 -0.09961,-0.01 z m 0.242187,1.088 c 0.444004,0.1786 0.719323,0.3266 1.041016,0.6406 1.084446,1.0579 1.097378,2.7059 0.05469,3.7304 -0.294834,0.2468 -0.594457,0.4566 -0.916016,0.6133 -0.989544,0.4822 -2.288588,0.5738 -3.517578,1.1621 -0.461806,0.2212 -0.827034,0.4741 -1.09375,0.6699 -0.439757,-0.4538 -0.800464,-0.7762 -1.064453,-1.0136 0.02247,-0.023 0.0079,5e-4 0.03125,-0.024 0.225101,-0.232 0.481781,-0.5046 0.658203,-0.789 0.735111,-1.1855 1.000602,-2.5981 1.455079,-3.6719 0.620928,-0.04 1.067154,-0.5042 1.130858,-0.5742 0.892225,0.2641 1.706476,-0.061 2.2207,-0.7441 z">
      </path>
      <path
        style="color:;font-style:normal;font-variant:normal;font-weight:normal;font-stretch:normal;font-size:medium;line-height:normal;font-family:sans-serif;text-indent:0;text-align:start;text-decoration:none;text-decoration-line:none;text-decoration-style:solid;text-decoration-color:;letter-spacing:normal;word-spacing:normal;text-transform:none;direction:ltr;block-progression:tb;writing-mode:lr-tb;baseline-shift:baseline;text-anchor:start;white-space:normal;clip-rule:nonzero;display:inline;overflow:visible;visibility:visible;opacity:1;isolation:auto;mix-blend-mode:normal;color-interpolation:sRGB;color-interpolation-filters:linearRGB;solid-color:;solid-opacity:1;fill:#111111;fill-opacity:1;fill-rule:evenodd;stroke:none;stroke-width:1.00000024px;stroke-linecap:round;stroke-linejoin:miter;stroke-miterlimit:4;stroke-dasharray:none;stroke-dashoffset:0;stroke-opacity:1;color-rendering:auto;image-rendering:auto;shape-rendering:auto;text-rendering:auto;enable-background:accumulate"
        d="M 4.9921875,1027.8613 A 0.50005012,0.50005012 0 0 0 4.5,1028.3691 l 0,4.4864 a 0.50005012,0.50005012 0 1 0 1,0 l 0,-4.4864 a 0.50005012,0.50005012 0 0 0 -0.5078125,-0.5078 z">
      </path>
      <path
        style="color:;font-style:normal;font-variant:normal;font-weight:normal;font-stretch:normal;font-size:medium;line-height:normal;font-family:sans-serif;text-indent:0;text-align:start;text-decoration:none;text-decoration-line:none;text-decoration-style:solid;text-decoration-color:;letter-spacing:normal;word-spacing:normal;text-transform:none;direction:ltr;block-progression:tb;writing-mode:lr-tb;baseline-shift:baseline;text-anchor:start;white-space:normal;clip-rule:nonzero;display:inline;overflow:visible;visibility:visible;opacity:1;isolation:auto;mix-blend-mode:normal;color-interpolation:sRGB;color-interpolation-filters:linearRGB;solid-color:;solid-opacity:1;fill:#111111;fill-opacity:1;fill-rule:nonzero;stroke:none;stroke-width:1.00000012;stroke-linecap:round;stroke-linejoin:miter;stroke-miterlimit:4;stroke-dasharray:none;stroke-dashoffset:0;stroke-opacity:1;color-rendering:auto;image-rendering:auto;shape-rendering:auto;text-rendering:auto;enable-background:accumulate"
        d="m 0.5,1032.8613 0,0.5 0,1.0723 c 0,0.5835 0.33316438,1.0895 0.7929688,1.418 0.4598043,0.3284 1.0571976,0.5097 1.7070312,0.5097 0.6498338,0 1.2452736,-0.1813 1.7050781,-0.5097 C 5.1648827,1035.5231 5.5,1035.0171 5.5,1034.4336 l 0,-1.5723 -5,0 z m 1,1 3,0 0,0.5723 c 0,0.2078 -0.1118045,0.4155 -0.375,0.6035 -0.2631955,0.188 -0.6668327,0.3242 -1.125,0.3242 -0.458167,0 -0.8618047,-0.1362 -1.125,-0.3242 -0.2631953,-0.188 -0.375,-0.3957 -0.375,-0.6035 l 0,-0.5723 z">
      </path>
      <path
        style="color:;font-style:normal;font-variant:normal;font-weight:normal;font-stretch:normal;font-size:medium;line-height:normal;font-family:sans-serif;text-indent:0;text-align:start;text-decoration:none;text-decoration-line:none;text-decoration-style:solid;text-decoration-color:;letter-spacing:normal;word-spacing:normal;text-transform:none;direction:ltr;block-progression:tb;writing-mode:lr-tb;baseline-shift:baseline;text-anchor:start;white-space:normal;clip-rule:nonzero;display:inline;overflow:visible;visibility:visible;opacity:1;isolation:auto;mix-blend-mode:normal;color-interpolation:sRGB;color-interpolation-filters:linearRGB;solid-color:;solid-opacity:1;fill:#111111;fill-opacity:1;fill-rule:nonzero;stroke:none;stroke-width:1.00000012;stroke-linecap:round;stroke-linejoin:miter;stroke-miterlimit:4;stroke-dasharray:none;stroke-dashoffset:0;stroke-opacity:1;color-rendering:auto;image-rendering:auto;shape-rendering:auto;text-rendering:auto;enable-background:accumulate"
        d="m 1.5,1038.8613 0,0.5 0,5.8184 c 0,0.375 0.2152509,0.6943 0.484375,0.8887 0.2691241,0.1943 0.6022234,0.2929 0.9609375,0.2929 l 0.109375,0 c 0.358712,0 0.6918141,-0.099 0.9609375,-0.2929 C 4.2847484,1045.874 4.5,1045.5547 4.5,1045.1797 l 0,-6.3184 -3,0 z m 1,1 1,0 0,5.3184 c 0,0 0.00431,0.026 -0.068359,0.078 -0.072666,0.053 -0.2122081,0.1035 -0.3769531,0.1035 l -0.109375,0 c -0.1647497,0 -0.3042874,-0.051 -0.3769531,-0.1035 C 2.4956936,1045.2053 2.5,1045.1828 2.5,1045.1797 l 0,-5.3184 z">
      </path>
      <path
        style="color:;font-style:normal;font-variant:normal;font-weight:normal;font-stretch:normal;font-size:medium;line-height:normal;font-family:sans-serif;text-indent:0;text-align:start;text-decoration:none;text-decoration-line:none;text-decoration-style:solid;text-decoration-color:;letter-spacing:normal;word-spacing:normal;text-transform:none;direction:ltr;block-progression:tb;writing-mode:lr-tb;baseline-shift:baseline;text-anchor:start;white-space:normal;clip-rule:nonzero;display:inline;overflow:visible;visibility:visible;opacity:1;isolation:auto;mix-blend-mode:normal;color-interpolation:sRGB;color-interpolation-filters:linearRGB;solid-color:;solid-opacity:1;fill:#111111;fill-opacity:1;fill-rule:evenodd;stroke:none;stroke-width:1.00000024px;stroke-linecap:butt;stroke-linejoin:miter;stroke-miterlimit:4;stroke-dasharray:none;stroke-dashoffset:0;stroke-opacity:1;color-rendering:auto;image-rendering:auto;shape-rendering:auto;text-rendering:auto;enable-background:accumulate"
        d="m 2.5,1035.3613 0,4.5 1,0 0,-4.5 -1,0 z"></path>
      <path
        style="color:;font-style:normal;font-variant:normal;font-weight:normal;font-stretch:normal;font-size:medium;line-height:normal;font-family:sans-serif;text-indent:0;text-align:start;text-decoration:none;text-decoration-line:none;text-decoration-style:solid;text-decoration-color:;letter-spacing:normal;word-spacing:normal;text-transform:none;direction:ltr;block-progression:tb;writing-mode:lr-tb;baseline-shift:baseline;text-anchor:start;white-space:normal;clip-rule:nonzero;display:inline;overflow:visible;visibility:visible;opacity:1;isolation:auto;mix-blend-mode:normal;color-interpolation:sRGB;color-interpolation-filters:linearRGB;solid-color:;solid-opacity:1;fill:#111111;fill-opacity:1;fill-rule:evenodd;stroke:none;stroke-width:1.00000024px;stroke-linecap:round;stroke-linejoin:miter;stroke-miterlimit:4;stroke-dasharray:none;stroke-dashoffset:0;stroke-opacity:1;color-rendering:auto;image-rendering:auto;shape-rendering:auto;text-rendering:auto;enable-background:accumulate"
        d="M 2.9921875,1027.8613 A 0.50005012,0.50005012 0 0 0 2.5,1028.3691 l 0,4.4864 a 0.50005012,0.50005012 0 1 0 1,0 l 0,-4.4864 a 0.50005012,0.50005012 0 0 0 -0.5078125,-0.5078 z">
      </path>
      <path
        style="color:;font-style:normal;font-variant:normal;font-weight:normal;font-stretch:normal;font-size:medium;line-height:normal;font-family:sans-serif;text-indent:0;text-align:start;text-decoration:none;text-decoration-line:none;text-decoration-style:solid;text-decoration-color:;letter-spacing:normal;word-spacing:normal;text-transform:none;direction:ltr;block-progression:tb;writing-mode:lr-tb;baseline-shift:baseline;text-anchor:start;white-space:normal;clip-rule:nonzero;display:inline;overflow:visible;visibility:visible;opacity:1;isolation:auto;mix-blend-mode:normal;color-interpolation:sRGB;color-interpolation-filters:linearRGB;solid-color:;solid-opacity:1;fill:#111111;fill-opacity:1;fill-rule:evenodd;stroke:none;stroke-width:1.00000024px;stroke-linecap:round;stroke-linejoin:miter;stroke-miterlimit:4;stroke-dasharray:none;stroke-dashoffset:0;stroke-opacity:1;color-rendering:auto;image-rendering:auto;shape-rendering:auto;text-rendering:auto;enable-background:accumulate"
        d="M 0.9921875,1027.8613 A 0.50005012,0.50005012 0 0 0 0.5,1028.3691 l 0,4.4864 a 0.50005012,0.50005012 0 1 0 1,0 l 0,-4.4864 a 0.50005012,0.50005012 0 0 0 -0.5078125,-0.5078 z">
      </path>
      <path
        style="color:;font-style:normal;font-variant:normal;font-weight:normal;font-stretch:normal;font-size:medium;line-height:normal;font-family:sans-serif;text-indent:0;text-align:start;text-decoration:none;text-decoration-line:none;text-decoration-style:solid;text-decoration-color:;letter-spacing:normal;word-spacing:normal;text-transform:none;direction:ltr;block-progression:tb;writing-mode:lr-tb;baseline-shift:baseline;text-anchor:start;white-space:normal;clip-rule:nonzero;display:inline;overflow:visible;visibility:visible;opacity:1;isolation:auto;mix-blend-mode:normal;color-interpolation:sRGB;color-interpolation-filters:linearRGB;solid-color:;solid-opacity:1;fill:#111111;fill-opacity:1;fill-rule:evenodd;stroke:none;stroke-width:0.99999994;stroke-linecap:round;stroke-linejoin:round;stroke-miterlimit:4;stroke-dasharray:none;stroke-dashoffset:0;stroke-opacity:1;color-rendering:auto;image-rendering:auto;shape-rendering:auto;text-rendering:auto;enable-background:accumulate"
        d="m 30.976562,1027.8633 c -0.09491,0 -0.187044,0.033 -0.265624,0.086 -2.551468,1.7353 -3.17451,4.253 -3.210938,6.2363 l 0,0.01 0,5.1035 c 2.8e-5,0.2761 0.223869,0.5 0.5,0.5 l 0.5,0 0.0078,6.0645 c 0.0011,0.2753 0.224648,0.498 0.5,0.498 l 1.992188,0 c 0.276131,0 0.499972,-0.2239 0.5,-0.5 l -0.002,-6.5156 0,0 c 0.0015,-0.022 0.0015,-0.044 0,-0.066 l -0.002,-3.1484 c 0.0096,-0.6762 -1.00956,-0.6762 -1,0 l 0.002,2.6699 -1.998047,0 0,-4.5937 c 0.02842,-1.5472 0.46792,-3.2923 1.994141,-4.7285 l 0.0059,3.1367 c -0.0096,0.6762 1.00956,0.6762 1,0 l -0.0078,-4.25 c -0.001,-0.2816 -0.234198,-0.5068 -0.515626,-0.498 z M 29.5,1039.7988 l 0.998047,0 0.002,5.5625 -0.994141,0 z">
      </path>
      <path
        style="color:;font-style:normal;font-variant:normal;font-weight:normal;font-stretch:normal;font-size:medium;line-height:normal;font-family:sans-serif;text-indent:0;text-align:start;text-decoration:none;text-decoration-line:none;text-decoration-style:solid;text-decoration-color:;letter-spacing:normal;word-spacing:normal;text-transform:none;direction:ltr;block-progression:tb;writing-mode:lr-tb;baseline-shift:baseline;text-anchor:start;white-space:normal;clip-rule:nonzero;display:inline;overflow:visible;visibility:visible;opacity:1;isolation:auto;mix-blend-mode:normal;color-interpolation:sRGB;color-interpolation-filters:linearRGB;solid-color:;solid-opacity:1;fill:#111111;fill-opacity:1;fill-rule:nonzero;stroke:none;stroke-width:0.99999994;stroke-linecap:round;stroke-linejoin:round;stroke-miterlimit:4;stroke-dasharray:none;stroke-dashoffset:0;stroke-opacity:1;color-rendering:auto;image-rendering:auto;shape-rendering:auto;text-rendering:auto;enable-background:accumulate"
        d="m 16.275391,1026.3652 c -2.263623,0.054 -4.507136,0.9112 -6.269532,2.5625 a 0.5002327,0.5002327 0 0 0 0.683594,0.7305 c 3.159479,-2.9604 8.026092,-3.0769 11.322266,-0.2695 3.296114,2.8074 3.958383,7.6318 1.539062,11.2226 -2.419324,3.5908 -7.139088,4.7901 -10.978515,2.7891 -3.8394393,-2.0011 -5.5591501,-6.5555 -4.0019535,-10.5957 a 0.50053344,0.50053344 0 1 0 -0.9335937,-0.3613 c -1.7372275,4.5072 0.1912081,9.6113 4.4746092,11.8437 4.283388,2.2324 9.570491,0.8888 12.269531,-3.1172 2.699038,-4.0059 1.956528,-9.4109 -1.720703,-12.5429 -1.838648,-1.566 -4.121143,-2.3154 -6.384765,-2.2618 z">
      </path>
      <path
        style="opacity:1;fill:#111111;fill-opacity:1;stroke:none;stroke-width:0.26500002;stroke-linecap:butt;stroke-linejoin:miter;stroke-miterlimit:4;stroke-dasharray:none;stroke-dashoffset:0;stroke-opacity:1"
        d="m 9.5001226,1030.8622 a 0.50000002,0.50000002 0 0 1 -0.5000001,0.5 0.50000002,0.50000002 0 0 1 -0.5000001,-0.5 0.50000002,0.50000002 0 0 1 0.5000001,-0.5 0.50000002,0.50000002 0 0 1 0.5000001,0.5 z">
      </path>
      <path
        style="opacity:1;fill:#111111;fill-opacity:1;stroke:none;stroke-width:0.26500002;stroke-linecap:butt;stroke-linejoin:miter;stroke-miterlimit:4;stroke-dasharray:none;stroke-dashoffset:0;stroke-opacity:1"
        d="m 31.500123,1034.3622 a 0.50000002,0.50000002 0 0 1 -0.5,0.5 0.50000002,0.50000002 0 0 1 -0.5,-0.5 0.50000002,0.50000002 0 0 1 0.5,-0.5 0.50000002,0.50000002 0 0 1 0.5,0.5 z">
      </path>
    </g>
  </g>
  <g id="SvgjsG1697" featurekey="EI8VXn-0"
    transform="matrix(1.96939020732877,0,0,1.96939020732877,-0.3938790744520268,111.53815147251362)" fill="#111111">
    <path
      d="M10.88 20 q-0.22 -0.72 -0.49 -1.48 t-0.53 -1.52 l-5.4 0 q-0.26 0.76 -0.53 1.52 t-0.49 1.48 l-3.24 0 q0.78 -2.24 1.48 -4.14 t1.37 -3.58 t1.32 -3.19 t1.35 -2.95 l2.98 0 q0.68 1.44 1.34 2.95 t1.33 3.19 t1.37 3.58 t1.48 4.14 l-3.34 0 z M7.14 9.28 q-0.1 0.3 -0.3 0.82 t-0.46 1.2 t-0.57 1.5 t-0.63 1.72 l3.94 0 q-0.32 -0.9 -0.62 -1.72 t-0.57 -1.5 t-0.47 -1.2 t-0.32 -0.82 z M25.32 20 q-1.34 -2.38 -2.9 -4.7 t-3.32 -4.38 l0 9.08 l-3.08 0 l0 -13.86 l2.54 0 q0.66 0.66 1.46 1.62 t1.63 2.05 t1.65 2.26 t1.54 2.25 l0 -8.18 l3.1 0 l0 13.86 l-2.62 0 z M34.26 17.46 q0.22 0.02 0.51 0.03 t0.69 0.01 q2.34 0 3.47 -1.18 t1.13 -3.26 q0 -2.18 -1.08 -3.3 t-3.42 -1.12 q-0.32 0 -0.66 0.01 t-0.64 0.05 l0 8.76 z M43.28 13.059999999999999 q0 1.8 -0.56 3.14 t-1.59 2.22 t-2.51 1.32 t-3.32 0.44 q-0.84 0 -1.96 -0.07 t-2.2 -0.29 l0 -13.5 q1.08 -0.2 2.25 -0.27 t2.01 -0.07 q1.78 0 3.23 0.4 t2.49 1.26 t1.6 2.2 t0.56 3.22 z M49.94 5.98 q3.12 0 4.78 1.11 t1.66 3.45 q0 1.46 -0.67 2.37 t-1.93 1.43 q0.42 0.52 0.88 1.19 t0.91 1.4 t0.87 1.52 t0.78 1.55 l-3.5 0 q-0.38 -0.68 -0.77 -1.38 t-0.8 -1.36 t-0.81 -1.25 t-0.8 -1.07 l-1.54 0 l0 5.06 l-3.12 0 l0 -13.66 q1.02 -0.2 2.11 -0.28 t1.95 -0.08 z M50.120000000000005 8.64 q-0.34 0 -0.61 0.02 t-0.51 0.04 l0 3.76 l0.88 0 q1.76 0 2.52 -0.44 t0.76 -1.5 q0 -1.02 -0.77 -1.45 t-2.27 -0.43 z M68.5 20 q-0.22 -0.72 -0.49 -1.48 t-0.53 -1.52 l-5.4 0 q-0.26 0.76 -0.53 1.52 t-0.49 1.48 l-3.24 0 q0.78 -2.24 1.48 -4.14 t1.37 -3.58 t1.32 -3.19 t1.35 -2.95 l2.98 0 q0.68 1.44 1.34 2.95 t1.33 3.19 t1.37 3.58 t1.48 4.14 l-3.34 0 z M64.76 9.28 q-0.1 0.3 -0.3 0.82 t-0.46 1.2 t-0.57 1.5 t-0.63 1.72 l3.94 0 q-0.32 -0.9 -0.62 -1.72 t-0.57 -1.5 t-0.47 -1.2 t-0.32 -0.82 z M76.76 17.46 q0.22 0.02 0.51 0.03 t0.69 0.01 q2.34 0 3.47 -1.18 t1.13 -3.26 q0 -2.18 -1.08 -3.3 t-3.42 -1.12 q-0.32 0 -0.66 0.01 t-0.64 0.05 l0 8.76 z M85.78 13.059999999999999 q0 1.8 -0.56 3.14 t-1.59 2.22 t-2.51 1.32 t-3.32 0.44 q-0.84 0 -1.96 -0.07 t-2.2 -0.29 l0 -13.5 q1.08 -0.2 2.25 -0.27 t2.01 -0.07 q1.78 0 3.23 0.4 t2.49 1.26 t1.6 2.2 t0.56 3.22 z M88.38 20 l0 -13.86 l9.36 0 l0 2.62 l-6.24 0 l0 2.72 l5.54 0 l0 2.56 l-5.54 0 l0 3.34 l6.7 0 l0 2.62 l-9.82 0 z M104.4 16.32 q0 -0.76 0.22 -1.39 t0.59 -1.14 t0.86 -0.9 t1.03 -0.69 q-0.48 -0.58 -0.86 -1.25 t-0.38 -1.47 q0 -1.76 1.06 -2.71 t2.92 -0.95 q0.94 0 1.64 0.25 t1.17 0.68 t0.71 1 t0.24 1.23 q0 1.22 -0.69 2.17 t-1.75 1.59 l2.24 2.24 q0.18 -0.4 0.35 -1.01 t0.21 -1.07 l2.48 0.32 q-0.04 0.38 -0.14 0.83 t-0.25 0.91 t-0.34 0.92 t-0.41 0.84 q0.64 0.72 1.25 1.57 t1.05 1.71 l-3.06 0 q-0.16 -0.26 -0.44 -0.65 t-0.56 -0.67 q-0.8 0.64 -1.86 1.07 t-2.38 0.43 q-1.4 0 -2.34 -0.35 t-1.51 -0.9 t-0.81 -1.24 t-0.24 -1.37 z M107.18 16.02 q0 0.3 0.12 0.62 t0.39 0.59 t0.69 0.44 t1.02 0.17 q0.84 0 1.47 -0.22 t1.05 -0.58 l-3.2 -3.22 q-0.28 0.14 -0.55 0.34 t-0.49 0.47 t-0.36 0.61 t-0.14 0.78 z M111.06 9.12 q0 -0.46 -0.3 -0.82 t-1 -0.36 q-0.64 0 -0.99 0.39 t-0.35 1.01 q0 0.52 0.3 1.01 t0.78 0.93 q0.64 -0.36 1.1 -0.86 t0.46 -1.3 z M128.82 20.18 q-1.14 0 -2.27 -0.07 t-2.35 -0.33 l0 -13.44 q0.96 -0.18 2.1 -0.27 t2.12 -0.09 q1.32 0 2.43 0.19 t1.91 0.65 t1.25 1.21 t0.45 1.85 q0 1.66 -1.6 2.62 q1.32 0.5 1.8 1.36 t0.48 1.94 q0 2.18 -1.59 3.28 t-4.73 1.1 z M127.24 13.96 l0 3.58 q0.34 0.04 0.74 0.06 t0.88 0.02 q1.4 0 2.26 -0.4 t0.86 -1.48 q0 -0.96 -0.72 -1.37 t-2.06 -0.41 l-1.96 0 z M127.24 11.58 l1.52 0 q1.44 0 2.06 -0.37 t0.62 -1.19 q0 -0.84 -0.64 -1.18 t-1.88 -0.34 q-0.4 0 -0.86 0.01 t-0.82 0.05 l0 3.02 z M140.26 13.059999999999999 q0 1.02 0.25 1.84 t0.72 1.41 t1.15 0.91 t1.56 0.32 q0.86 0 1.55 -0.32 t1.16 -0.91 t0.72 -1.41 t0.25 -1.84 t-0.25 -1.85 t-0.72 -1.42 t-1.16 -0.91 t-1.55 -0.32 q-0.88 0 -1.56 0.33 t-1.15 0.92 t-0.72 1.42 t-0.25 1.83 z M150.84 13.059999999999999 q0 1.78 -0.53 3.13 t-1.45 2.26 t-2.19 1.37 t-2.73 0.46 q-1.42 0 -2.68 -0.46 t-2.2 -1.37 t-1.48 -2.26 t-0.54 -3.13 t0.56 -3.13 t1.51 -2.27 t2.2 -1.38 t2.63 -0.46 q1.42 0 2.68 0.46 t2.2 1.38 t1.48 2.27 t0.54 3.13 z M157.5 5.98 q3.12 0 4.78 1.11 t1.66 3.45 q0 1.46 -0.67 2.37 t-1.93 1.43 q0.42 0.52 0.88 1.19 t0.91 1.4 t0.87 1.52 t0.78 1.55 l-3.5 0 q-0.38 -0.68 -0.77 -1.38 t-0.8 -1.36 t-0.81 -1.25 t-0.8 -1.07 l-1.54 0 l0 5.06 l-3.12 0 l0 -13.66 q1.02 -0.2 2.11 -0.28 t1.95 -0.08 z M157.68 8.64 q-0.34 0 -0.61 0.02 t-0.51 0.04 l0 3.76 l0.88 0 q1.76 0 2.52 -0.44 t0.76 -1.5 q0 -1.02 -0.77 -1.45 t-2.27 -0.43 z M173.54000000000002 8.54 q-2.18 0 -3.15 1.21 t-0.97 3.31 q0 1.02 0.24 1.85 t0.72 1.43 t1.2 0.93 t1.68 0.33 q0.52 0 0.89 -0.02 t0.65 -0.08 l0 -4.82 l3.12 0 l0 6.86 q-0.56 0.22 -1.8 0.47 t-3.06 0.25 q-1.56 0 -2.83 -0.48 t-2.17 -1.4 t-1.39 -2.26 t-0.49 -3.06 q0 -1.74 0.54 -3.08 t1.48 -2.27 t2.21 -1.41 t2.71 -0.48 q0.98 0 1.77 0.13 t1.36 0.3 t0.94 0.35 t0.53 0.28 l-0.9 2.5 q-0.64 -0.34 -1.47 -0.59 t-1.81 -0.25 z">
    </path>
  </g>
  <g id="SvgjsG1698" featurekey="EI8VXn-1"
    transform="matrix(4.431501029552742,0,0,4.431501029552742,-7.090392772246086,135.20866324728547)" fill="#111111">
    <path
      d="M5.66 5.98 q3.12 0 4.78 1.11 t1.66 3.45 q0 1.46 -0.67 2.37 t-1.93 1.43 q0.42 0.52 0.88 1.19 t0.91 1.4 t0.87 1.52 t0.78 1.55 l-3.5 0 q-0.38 -0.68 -0.77 -1.38 t-0.8 -1.36 t-0.81 -1.25 t-0.8 -1.07 l-1.54 0 l0 5.06 l-3.12 0 l0 -13.66 q1.02 -0.2 2.11 -0.28 t1.95 -0.08 z M5.84 8.64 q-0.34 0 -0.61 0.02 t-0.51 0.04 l0 3.76 l0.88 0 q1.76 0 2.52 -0.44 t0.76 -1.5 q0 -1.02 -0.77 -1.45 t-2.27 -0.43 z M14.94 20 l0 -13.86 l9.36 0 l0 2.62 l-6.24 0 l0 2.72 l5.54 0 l0 2.56 l-5.54 0 l0 3.34 l6.7 0 l0 2.62 l-9.82 0 z M33.38 20.28 q-3.38 0 -5.15 -1.88 t-1.77 -5.34 q0 -1.72 0.54 -3.07 t1.48 -2.28 t2.24 -1.41 t2.82 -0.48 q0.88 0 1.6 0.13 t1.26 0.3 t0.9 0.35 t0.52 0.28 l-0.9 2.52 q-0.64 -0.34 -1.49 -0.58 t-1.93 -0.24 q-0.72 0 -1.41 0.24 t-1.22 0.77 t-0.85 1.37 t-0.32 2.04 q0 0.96 0.21 1.79 t0.68 1.43 t1.23 0.95 t1.84 0.35 q0.68 0 1.22 -0.08 t0.96 -0.19 t0.74 -0.25 t0.58 -0.26 l0.86 2.5 q-0.66 0.4 -1.86 0.72 t-2.78 0.32 z M40.02 6.140000000000001 l3.12 0 l0 13.86 l-3.12 0 l0 -13.86 z M50.5 5.98 q3.1 0 4.76 1.09 t1.66 3.57 q0 2.5 -1.68 3.61 t-4.8 1.11 l-0.98 0 l0 4.64 l-3.12 0 l0 -13.66 q1.02 -0.2 2.16 -0.28 t2 -0.08 z M50.7 8.64 q-0.34 0 -0.67 0.02 t-0.57 0.04 l0 4 l0.98 0 q1.62 0 2.44 -0.44 t0.82 -1.64 q0 -0.58 -0.21 -0.96 t-0.6 -0.61 t-0.95 -0.32 t-1.24 -0.09 z M59.220000000000006 20 l0 -13.86 l9.36 0 l0 2.62 l-6.24 0 l0 2.72 l5.54 0 l0 2.56 l-5.54 0 l0 3.34 l6.7 0 l0 2.62 l-9.82 0 z M75.12 17.62 q0.66 0 1.09 -0.11 t0.69 -0.3 t0.36 -0.45 t0.1 -0.58 q0 -0.68 -0.64 -1.13 t-2.2 -0.97 q-0.68 -0.24 -1.36 -0.55 t-1.22 -0.78 t-0.88 -1.14 t-0.34 -1.63 t0.36 -1.73 t1.02 -1.31 t1.6 -0.83 t2.12 -0.29 q1.4 0 2.42 0.3 t1.68 0.66 l-0.9 2.46 q-0.58 -0.3 -1.29 -0.53 t-1.71 -0.23 q-1.12 0 -1.61 0.31 t-0.49 0.95 q0 0.38 0.18 0.64 t0.51 0.47 t0.76 0.38 t0.95 0.35 q1.08 0.4 1.88 0.79 t1.33 0.91 t0.79 1.22 t0.26 1.7 q0 1.94 -1.36 3.01 t-4.1 1.07 q-0.92 0 -1.66 -0.11 t-1.31 -0.27 t-0.98 -0.34 t-0.69 -0.34 l0.88 -2.48 q0.62 0.34 1.53 0.61 t2.23 0.27 z">
    </path>
  </g>
</svg>